<svg width="29" height="29" viewBox="0 0 29 29" fill="none" xmlns="http://www.w3.org/2000/svg">
    <rect width="29" height="29" rx="6" fill="#000000"/>
    <path d="M14.5 7C10.3579 7 7 10.3579 7 14.5C7 18.6421 10.3579 22 14.5 22C18.6421 22 22 18.6421 22 14.5C22 10.3579 18.6421 7 14.5 7ZM14.5 20C11.4624 20 9 17.5376 9 14.5C9 11.4624 11.4624 9 14.5 9C17.5376 9 20 11.4624 20 14.5C20 17.5376 17.5376 20 14.5 20Z" fill="#FFFFFF"/>
    <path d="M14.5 11C12.567 11 11 12.567 11 14.5C11 16.433 12.567 18 14.5 18C16.433 18 18 16.433 18 14.5C18 12.567 16.433 11 14.5 11Z" fill="#FFFFFF"/>
</svg>